<?xml version="1.0" standalone="no"?>
<!DOCTYPE svg PUBLIC "-//W3C//DTD SVG 20010904//EN"
 "http://www.w3.org/TR/2001/REC-SVG-20010904/DTD/svg10.dtd">
<svg version="1.0" xmlns="http://www.w3.org/2000/svg"
 width="227.000000pt" height="259.000000pt" viewBox="0 0 227.000000 259.000000"
 preserveAspectRatio="xMidYMid meet">

<g transform="translate(0.000000,259.000000) scale(0.100000,-0.100000)"
fill="#000000" stroke="none">
<path d="M1147 2483 c-11 -10 -8 -91 3 -98 6 -4 10 15 10 49 0 57 -1 61 -13
49z"/>
<path d="M1040 2455 c0 -15 34 -85 41 -85 12 0 12 3 -7 50 -9 22 -20 40 -25
40 -5 0 -9 -2 -9 -5z"/>
<path d="M1234 2425 c-16 -39 -18 -55 -6 -55 4 0 15 20 24 45 20 53 4 62 -18
10z"/>
<path d="M960 2402 c0 -19 66 -87 73 -75 3 5 -12 27 -33 48 -22 22 -40 34 -40
27z"/>
<path d="M1300 2370 c-18 -23 -30 -44 -26 -47 3 -4 7 -4 9 -2 1 2 17 21 35 40
19 21 29 39 24 43 -6 3 -25 -12 -42 -34z"/>
<path d="M715 2340 c-3 -5 -29 -16 -57 -25 -50 -15 -88 -39 -88 -57 0 -5 -18
-26 -40 -47 -28 -26 -40 -47 -41 -67 -4 -147 -19 -186 -84 -219 -29 -14 -35
-20 -22 -23 26 -5 79 29 101 67 12 21 20 58 23 104 6 100 9 112 39 132 24 16
27 16 45 -1 16 -14 35 -17 97 -15 42 1 78 4 81 6 2 2 -4 16 -14 31 l-17 27 41
-6 c50 -6 55 9 5 19 -34 6 -34 7 -15 21 12 8 21 21 21 30 0 14 -4 13 -23 -5
-30 -29 -41 -28 -33 2 6 25 -8 44 -19 26z m-20 -60 c-20 -22 -20 -22 15 -41
l25 -13 -25 -7 c-53 -15 -99 -10 -111 12 -14 28 2 45 61 62 53 16 59 14 35
-13z"/>
<path d="M1572 2320 c5 -35 0 -37 -36 -9 -14 11 -26 16 -26 10 0 -5 11 -18 25
-29 l25 -20 -35 -6 c-51 -10 -56 -28 -5 -20 l41 7 -12 -27 c-7 -14 -10 -28 -8
-31 3 -2 39 -5 81 -6 62 -2 81 1 96 15 19 16 21 16 48 -8 27 -22 29 -31 34
-115 5 -69 11 -97 26 -118 31 -41 68 -65 95 -61 22 3 21 5 -15 23 -64 33 -80
63 -87 167 -5 89 -6 92 -40 122 -19 17 -42 42 -51 56 -10 17 -35 32 -71 43
-31 10 -59 22 -62 27 -13 21 -27 9 -23 -20z m132 -51 c5 -4 6 -19 2 -33 -5
-22 -12 -26 -44 -25 -20 1 -50 4 -67 8 l-30 6 33 14 c30 13 31 15 17 31 -29
32 -18 40 33 23 26 -9 51 -19 56 -24z"/>
<path d="M1112 2283 c-62 -97 -67 -151 -22 -230 16 -28 34 -54 40 -58 5 -3 10
-30 10 -58 l0 -52 -24 50 c-37 80 -86 110 -197 122 l-61 6 7 -34 c11 -54 44
-121 73 -152 29 -30 105 -57 164 -57 l38 0 0 -72 0 -72 -22 44 c-27 53 -60 72
-137 78 l-53 5 7 -34 c11 -52 47 -109 78 -126 15 -8 50 -17 78 -20 l49 -6 0
-68 c0 -42 -4 -69 -10 -69 -35 0 -121 74 -126 107 -6 36 -54 38 -54 2 0 -11 7
-22 17 -26 9 -3 36 -25 60 -48 l43 -42 -33 4 c-90 11 -138 25 -147 44 -14 24
-36 24 -49 0 -12 -21 8 -46 31 -39 7 3 33 -2 58 -10 74 -23 300 -27 400 -7 47
9 96 17 110 18 17 1 26 9 28 23 4 31 -28 41 -49 15 -16 -20 -58 -32 -152 -45
l-39 -5 48 42 c26 23 55 45 66 49 22 9 23 31 3 48 -18 15 -45 -2 -45 -29 0
-29 -88 -101 -122 -101 -16 0 -18 10 -18 69 l0 68 51 6 c88 11 137 56 155 145
l7 32 -44 0 c-69 -1 -122 -30 -147 -81 l-21 -44 -1 73 0 72 35 0 c56 0 132 20
161 42 32 26 84 132 84 172 l0 29 -53 -6 c-69 -9 -141 -34 -162 -57 -9 -10
-27 -45 -41 -77 l-24 -58 0 51 c0 43 6 61 35 104 48 71 61 119 46 169 -12 43
-69 133 -87 138 -6 2 -25 -18 -42 -44z m28 -75 l0 -73 -27 28 -28 27 24 45
c13 25 25 45 27 45 2 0 4 -33 4 -72z m46 33 c-13 -20 -26 -11 -26 16 0 25 1
26 16 11 9 -9 13 -21 10 -27z m5 -44 c-11 -12 -24 -18 -27 -14 -10 10 27 48
38 41 6 -4 1 -16 -11 -27z m33 -28 c6 -33 -24 -118 -50 -140 -12 -10 -14 -1
-14 50 0 48 5 68 22 91 27 38 34 38 42 -1z m-84 -68 c0 -10 -9 -6 -30 14 -16
16 -30 35 -30 44 0 10 9 6 30 -14 17 -16 30 -35 30 -44z m0 -60 c-1 -24 -2
-23 -25 14 -32 51 -32 65 0 35 14 -14 25 -34 25 -49z m-153 -17 c22 -6 25 -11
38 -68 l6 -29 -53 43 c-29 24 -57 47 -62 52 -11 9 38 11 71 2z m375 -25 c-19
-17 -35 -29 -37 -27 -2 2 -1 15 2 31 4 23 10 27 37 27 l31 -1 -33 -30z m-372
-65 c0 -2 -15 -4 -34 -4 -30 0 -36 4 -50 40 -9 22 -16 43 -16 46 0 3 23 -13
50 -36 28 -23 50 -44 50 -46z m326 74 c-3 -7 -7 -25 -10 -39 -3 -15 -13 -30
-22 -33 -14 -5 -15 -1 -9 31 6 35 19 52 37 53 4 0 6 -6 4 -12z m91 -23 c-4 -8
-17 -15 -29 -15 l-23 0 25 20 c27 20 36 19 27 -5z m-349 3 c5 -7 13 -33 17
-58 7 -45 7 -45 -13 -25 -11 11 -23 37 -26 58 -7 37 3 48 22 25z m201 -35 c-7
-33 -18 -54 -37 -69 -15 -12 -29 -20 -31 -18 -13 12 53 134 73 134 2 0 -1 -21
-5 -47z m131 -3 c0 -5 -14 -10 -31 -10 -17 0 -28 4 -24 10 3 6 17 10 31 10 13
0 24 -4 24 -10z m-276 -70 c7 -24 6 -24 -8 -6 -9 11 -16 29 -16 40 1 17 2 18
9 6 5 -8 12 -26 15 -40z m254 34 c-5 -27 -50 -54 -106 -63 -28 -4 -52 -5 -52
-2 1 3 22 23 48 43 52 41 117 54 110 22z m-344 -3 c7 -10 -60 -25 -74 -16 -6
3 -10 10 -10 16 0 12 77 12 84 0z m56 -46 l24 -25 -35 6 c-19 3 -50 11 -69 17
l-35 11 30 7 c51 11 61 10 85 -16z m-70 -101 c0 -14 -3 -15 -17 -3 -10 7 -20
15 -22 16 -2 2 5 3 17 3 14 0 22 -6 22 -16z m300 -4 c-14 -10 -27 -17 -29 -15
-8 8 22 35 38 35 12 0 10 -5 -9 -20z m-268 -15 c3 -13 2 -22 -2 -20 -11 7 -20
45 -10 45 4 0 10 -11 12 -25z m213 -24 c-17 -17 -17 -13 2 37 6 16 6 16 11 -2
2 -10 -4 -26 -13 -35z m-249 -9 c-11 -3 -26 4 -33 14 -23 31 -14 36 19 12 28
-20 30 -23 14 -26z m84 24 c0 -2 7 -20 16 -41 l15 -37 -29 21 c-35 24 -53 87
-20 70 10 -5 18 -11 18 -13z m239 -10 c-9 -18 -20 -26 -38 -26 -25 0 -25 0 9
29 19 16 36 28 38 26 1 -1 -3 -14 -9 -29z m-97 -6 c-4 -29 -27 -58 -38 -47 -7
7 25 77 35 77 4 0 6 -13 3 -30z m-182 -30 c11 -7 7 -10 -17 -10 -17 0 -35 5
-38 10 -8 13 35 13 55 0z m250 -10 c0 -5 -14 -10 -31 -10 -17 0 -28 4 -24 10
3 6 17 10 31 10 13 0 24 -4 24 -10z m-215 -20 c4 -6 -5 -10 -19 -10 -14 0 -26
5 -26 10 0 6 9 10 19 10 11 0 23 -4 26 -10z m158 -7 c-7 -2 -19 -2 -25 0 -7 3
-2 5 12 5 14 0 19 -2 13 -5z m-258 -63 c3 -5 1 -10 -4 -10 -6 0 -11 5 -11 10
0 6 2 10 4 10 3 0 8 -4 11 -10z m355 0 c0 -5 -4 -10 -10 -10 -5 0 -10 5 -10
10 0 6 5 10 10 10 6 0 10 -4 10 -10z m-470 -80 c0 -5 -4 -10 -10 -10 -5 0 -10
5 -10 10 0 6 5 10 10 10 6 0 10 -4 10 -10z m580 0 c0 -5 -4 -10 -10 -10 -5 0
-10 5 -10 10 0 6 5 10 10 10 6 0 10 -4 10 -10z"/>
<path d="M907 2272 c-10 -10 -17 -25 -17 -33 -1 -11 -4 -10 -14 4 -17 22 -28
22 -24 0 2 -10 -7 -22 -21 -29 -20 -11 -21 -13 -6 -21 15 -9 14 -12 -9 -27
-28 -18 -34 -44 -14 -64 18 -18 43 -15 63 8 10 12 25 18 33 15 7 -3 23 0 34 6
15 8 19 18 16 40 -3 20 1 34 14 46 21 19 23 44 6 61 -17 17 -42 15 -61 -6z
m48 -27 c0 -13 -8 -21 -22 -23 -17 -3 -23 2 -23 16 0 10 3 22 7 26 13 13 38 1
38 -19z m-55 -38 c0 -2 -9 -12 -20 -22 -19 -18 -20 -17 -20 3 0 15 6 22 20 22
11 0 20 -2 20 -3z m26 -53 c-3 -8 -11 -14 -18 -14 -9 0 -9 3 0 12 7 7 12 17
12 22 0 6 -5 5 -12 -2 -21 -21 -32 -13 -13 8 17 18 20 19 28 5 5 -9 6 -23 3
-31z m-71 -19 c0 -13 -8 -21 -22 -23 -17 -3 -23 2 -23 16 0 10 3 22 7 26 13
13 38 1 38 -19z"/>
<path d="M1342 2278 c-17 -17 -15 -43 3 -58 11 -9 14 -22 10 -40 -8 -34 18
-64 47 -54 13 4 26 -1 39 -15 22 -23 49 -27 67 -9 19 19 14 46 -13 64 -23 15
-24 18 -9 29 15 11 15 12 -5 18 -12 3 -25 15 -28 26 -4 16 -9 19 -18 11 -9 -8
-17 -4 -29 15 -18 27 -45 32 -64 13z m52 -25 c4 -9 2 -21 -3 -26 -15 -15 -41
0 -41 23 0 25 35 28 44 3z m56 -57 c0 -24 -18 -28 -30 -6 -9 17 -8 20 10 20
11 0 20 -6 20 -14z m-30 -28 c0 -6 -7 -5 -15 2 -8 7 -15 17 -15 22 0 6 7 5 15
-2 8 -7 15 -17 15 -22z m-22 -24 c-10 -10 -28 6 -28 24 0 15 1 15 17 -1 9 -9
14 -19 11 -23z m90 4 c18 -18 14 -38 -8 -38 -20 0 -44 32 -33 44 10 10 28 7
41 -6z"/>
<path d="M377 2130 c-30 -35 -42 -85 -33 -139 5 -33 1 -44 -24 -76 -52 -65
-23 -52 49 23 78 79 91 112 69 176 -17 51 -30 54 -61 16z m17 -45 c-4 -18 -9
-23 -14 -14 -5 7 -3 20 3 30 15 24 20 18 11 -16z m16 -75 c-21 -39 -27 -19
-11 35 16 55 16 55 19 21 2 -19 -2 -44 -8 -56z m-43 -2 c-3 -8 -6 -5 -6 6 -1
11 2 17 5 13 3 -3 4 -12 1 -19z"/>
<path d="M1870 2124 c-20 -61 -7 -114 38 -154 21 -19 49 -50 61 -67 12 -18 29
-33 37 -33 11 0 7 10 -13 35 -24 31 -28 44 -28 103 0 58 -4 75 -28 110 -34 52
-52 53 -67 6z m60 -40 c0 -8 -4 -14 -10 -14 -5 0 -10 9 -10 21 0 11 5 17 10
14 6 -3 10 -13 10 -21z m-26 -35 c18 -54 17 -69 -3 -45 -13 15 -28 96 -18 96
2 0 12 -23 21 -51z m36 1 c0 -5 -5 -10 -11 -10 -5 0 -7 5 -4 10 3 6 8 10 11
10 2 0 4 -4 4 -10z m10 -30 c0 -5 -5 -10 -11 -10 -5 0 -7 5 -4 10 3 6 8 10 11
10 2 0 4 -4 4 -10z"/>
<path d="M624 2111 c-53 -38 -78 -77 -80 -128 -1 -22 -5 -47 -9 -53 -13 -20
-128 -70 -162 -70 -18 0 -33 -4 -33 -10 0 -30 133 7 195 54 18 14 38 26 44 26
19 0 74 54 87 87 15 36 19 123 6 123 -5 0 -27 -13 -48 -29z m3 -48 c-10 -22
-13 -24 -15 -9 -2 10 2 22 10 27 19 12 19 12 5 -18z m20 -34 c-8 -19 -25 -43
-38 -54 l-23 -20 15 25 c9 14 24 40 33 58 22 43 32 35 13 -9z m-47 -1 c0 -16
-3 -19 -11 -11 -6 6 -8 16 -5 22 11 17 16 13 16 -11z m-24 -55 c-11 -11 -17 4
-9 23 7 18 8 18 11 1 2 -10 1 -21 -2 -24z"/>
<path d="M1623 2124 c-9 -23 14 -111 37 -144 11 -15 34 -33 52 -41 18 -7 45
-23 60 -35 38 -31 135 -66 172 -62 35 4 26 9 -49 27 -27 7 -69 24 -92 39 -41
26 -43 29 -43 76 0 47 -3 53 -55 103 -58 56 -72 63 -82 37z m77 -66 c0 -18
-17 -7 -29 19 -13 28 -13 28 8 9 12 -11 21 -23 21 -28z m13 -87 c10 -12 9 -13
-9 -3 -12 6 -29 27 -38 46 -25 54 -18 66 10 16 14 -25 31 -51 37 -59z m7 57
c0 -16 -3 -19 -11 -11 -6 6 -8 16 -5 22 11 17 16 13 16 -11z m20 -40 c0 -16
-3 -19 -11 -11 -6 6 -8 16 -5 22 11 17 16 13 16 -11z"/>
<path d="M773 1967 c-4 -7 -21 -13 -38 -13 -25 1 -30 -3 -33 -25 -2 -19 5 -33
28 -53 30 -25 31 -27 19 -64 -6 -20 -22 -58 -35 -83 -53 -107 -52 -204 3 -270
39 -46 45 -34 11 21 -46 73 -45 139 4 245 20 44 39 87 41 97 3 9 19 19 35 23
58 12 84 76 35 83 -13 2 -23 12 -25 25 -4 25 -33 35 -45 14z m18 -64 c-9 -15
-10 -13 -11 13 0 17 3 34 8 38 11 12 14 -32 3 -51z m-41 18 c17 -33 12 -46
-10 -26 -21 19 -27 45 -10 45 5 0 14 -9 20 -19z m100 -20 c0 -11 -40 -41 -54
-41 -5 0 1 11 14 25 24 26 40 32 40 16z"/>
<path d="M1492 1968 c-7 -7 -12 -18 -12 -24 0 -7 -10 -14 -22 -16 -51 -7 -18
-73 42 -85 17 -3 30 -11 30 -17 0 -6 18 -49 40 -96 57 -122 54 -205 -12 -276
-11 -13 -15 -24 -10 -28 6 -3 21 7 35 24 60 71 61 170 4 292 -21 42 -37 84
-37 94 0 9 14 29 30 44 34 31 38 51 14 71 -12 10 -20 10 -34 1 -15 -9 -19 -7
-23 9 -6 21 -27 25 -45 7z m35 -67 c-2 -12 -6 -10 -16 7 -7 13 -9 31 -6 40 6
14 9 13 16 -7 6 -14 8 -32 6 -40z m53 9 c-6 -10 -15 -22 -20 -25 -14 -9 -13
28 2 43 17 17 30 4 18 -18z m-90 -25 c25 -26 21 -32 -9 -15 -20 10 -36 40 -22
40 4 0 18 -11 31 -25z"/>
<path d="M644 1875 c-5 -11 -10 -12 -24 -3 -26 16 -54 3 -47 -23 4 -15 -1 -28
-16 -40 l-22 -19 24 -20 c18 -15 32 -19 53 -15 15 4 28 5 28 3 0 -2 -7 -28
-15 -58 -20 -75 -18 -127 6 -180 25 -56 68 -112 79 -105 5 3 -6 26 -25 51 -34
45 -55 98 -55 143 0 43 32 155 51 180 32 40 20 101 -18 101 -8 0 -16 -7 -19
-15z m36 -34 c0 -17 -4 -33 -10 -36 -6 -4 -10 8 -10 29 0 20 5 36 10 36 6 0
10 -13 10 -29z m-56 -3 c24 -34 19 -44 -9 -18 -14 13 -25 27 -25 32 0 16 19 8
34 -14z m-6 -47 c10 -6 8 -10 -10 -14 -14 -4 -29 -1 -38 8 -13 13 -11 15 10
15 14 0 31 -4 38 -9z"/>
<path d="M1610 1865 c-10 -27 10 -95 27 -95 13 0 33 -106 33 -169 0 -53 -15
-92 -56 -147 -32 -41 -30 -54 2 -23 37 35 62 78 73 131 10 44 9 62 -16 172 -6
27 -4 29 21 22 14 -3 35 -2 46 4 23 13 27 48 5 56 -10 4 -13 14 -9 30 7 29
-19 43 -48 25 -15 -9 -20 -9 -24 4 -10 24 -43 18 -54 -10z m39 -12 c0 -10 -4
-27 -9 -38 -7 -16 -9 -13 -9 18 -1 20 4 37 9 37 6 0 10 -8 9 -17z m51 -18
c-27 -29 -37 -27 -20 4 6 12 18 21 27 21 13 0 12 -5 -7 -25z m40 -44 c0 -13
-27 -21 -46 -14 -13 5 -13 7 -2 14 17 11 48 11 48 0z"/>
<path d="M246 1812 c-12 -19 26 -138 52 -166 36 -38 102 -86 119 -86 35 0 -4
137 -55 191 -38 39 -107 76 -116 61z m100 -133 c26 -38 45 -72 41 -75 -10 -10
-95 76 -101 104 -4 15 -10 36 -13 47 -10 33 20 2 73 -76z m5 54 c20 -22 42
-63 37 -68 -2 -2 -23 21 -46 51 -38 49 -31 63 9 17z"/>
<path d="M2010 1800 c-51 -27 -97 -79 -115 -129 -16 -46 -20 -111 -7 -111 17
0 99 58 124 88 32 39 64 173 41 172 -5 -1 -24 -9 -43 -20z m-53 -93 c-43 -66
-54 -75 -42 -37 6 20 71 100 81 100 2 0 -15 -29 -39 -63z m63 -2 c-11 -32 -94
-114 -105 -103 -2 2 12 29 32 59 68 103 99 121 73 44z"/>
<path d="M800 1717 c-11 -24 -28 -51 -39 -61 -11 -10 -25 -34 -32 -53 -14 -44
7 -106 51 -148 41 -40 50 -24 11 21 -18 20 -37 48 -42 62 -12 30 -3 76 17 93
12 10 20 7 43 -15 38 -37 77 -33 74 7 -1 17 3 27 12 27 20 0 30 40 14 51 -8 5
-20 9 -27 9 -7 0 -11 4 -8 9 11 18 -6 41 -31 41 -19 0 -28 -9 -43 -43z m60 15
c0 -13 -39 -46 -46 -39 -9 9 16 47 31 47 8 0 15 -4 15 -8z m40 -52 c0 -12 -44
-24 -62 -17 -8 3 -4 9 12 15 32 14 50 14 50 2z m-37 -67 c-15 -5 -53 15 -53
28 0 5 15 2 33 -7 17 -10 27 -19 20 -21z"/>
<path d="M1437 1753 c-4 -3 -7 -14 -7 -24 0 -9 -9 -19 -20 -22 -27 -7 -27 -47
0 -54 16 -4 18 -9 9 -24 -25 -47 38 -54 82 -10 l29 29 15 -21 c26 -38 19 -90
-20 -141 -40 -53 -43 -61 -15 -46 28 15 70 92 70 129 0 37 -23 86 -43 94 -8 3
-18 18 -21 34 -13 48 -56 80 -79 56z m47 -35 c9 -12 13 -24 11 -27 -6 -5 -45
29 -45 41 0 15 19 8 34 -14z m-15 -44 c2 -2 2 -7 -2 -10 -9 -10 -57 5 -57 17
0 10 48 4 59 -7z m14 -45 c-11 -12 -29 -19 -39 -16 -15 3 -12 7 16 20 46 21
48 21 23 -4z"/>
<path d="M476 1678 c-3 -13 -6 -48 -6 -79 0 -48 5 -65 33 -105 39 -58 50 -63
65 -29 24 53 7 135 -42 200 -31 41 -41 43 -50 13z m58 -65 c7 -16 16 -48 20
-73 7 -53 3 -47 -23 38 -20 67 -20 78 3 35z m-7 -103 c-6 -27 -37 47 -36 87
l0 38 20 -55 c11 -30 18 -62 16 -70z"/>
<path d="M1777 1663 c-14 -21 -31 -51 -36 -66 -15 -40 -13 -120 3 -143 14 -18
15 -18 38 10 55 68 70 130 49 205 -10 37 -25 35 -54 -6z m7 -55 c-4 -13 -13
-43 -20 -68 -12 -43 -13 -43 -13 -12 -1 18 6 48 13 67 16 39 32 48 20 13z m17
-74 c-12 -26 -23 -45 -26 -43 -5 5 23 119 33 134 17 26 11 -50 -7 -91z"/>
<path d="M110 1645 c0 -20 47 -114 69 -139 9 -10 32 -26 52 -37 40 -20 165
-46 175 -36 22 22 -65 136 -128 168 -30 15 -150 58 -165 59 -2 0 -3 -7 -3 -15z
m135 -96 c39 -25 79 -57 90 -69 l20 -23 -40 7 c-65 12 -112 42 -140 89 -41 71
-41 71 70 -4z m24 29 c30 -18 66 -49 80 -68 l26 -35 -45 36 c-25 20 -67 50
-95 68 -65 41 -34 40 34 -1z"/>
<path d="M2101 1632 c-84 -30 -160 -91 -192 -154 -16 -32 -17 -39 -5 -44 19
-7 134 14 167 31 37 20 84 76 108 131 34 76 33 76 -78 36z m-47 -63 c-32 -23
-74 -55 -93 -73 -22 -20 -30 -24 -23 -11 16 30 72 80 117 103 64 33 63 25 -1
-19z m87 2 c-34 -65 -107 -112 -176 -111 -17 1 -16 4 10 26 30 26 174 124 181
124 3 0 -4 -17 -15 -39z"/>
<path d="M272 1213 c3 -96 5 -108 22 -111 22 -5 36 13 36 46 0 15 6 22 19 22
36 0 78 22 90 46 16 37 14 52 -14 79 -21 22 -33 25 -90 25 l-66 0 3 -107z
m116 35 c-2 -17 -11 -24 -30 -26 -24 -3 -28 0 -28 22 0 22 4 26 31 26 26 0 30
-3 27 -22z"/>
<path d="M602 1213 l3 -108 80 0 c73 0 80 2 80 20 0 17 -8 20 -52 23 l-52 3
-3 82 c-3 81 -3 82 -31 85 l-28 3 3 -108z"/>
<path d="M929 1215 c-26 -57 -44 -106 -41 -110 15 -14 50 -3 60 20 10 21 19
25 52 25 34 0 42 -4 50 -25 7 -18 17 -25 36 -25 33 0 30 13 -25 134 -33 72
-44 86 -63 86 -20 0 -30 -16 -69 -105z m84 5 c4 -15 0 -20 -15 -20 -14 0 -18
5 -14 16 3 9 6 20 6 25 0 17 17 1 23 -21z"/>
<path d="M1232 1213 c3 -108 3 -108 28 -108 23 0 25 4 30 55 l5 54 39 -57 c29
-42 46 -57 63 -57 23 0 23 1 23 110 l0 110 -25 0 c-22 0 -24 -4 -27 -57 l-3
-58 -40 57 c-32 46 -45 57 -68 58 l-28 0 3 -107z"/>
<path d="M1592 1213 l3 -108 80 0 c73 0 80 2 80 20 0 17 -8 20 -57 23 -50 3
-58 6 -58 22 0 17 7 20 50 20 47 0 50 2 50 25 0 23 -3 25 -50 25 -37 0 -50 4
-50 15 0 10 15 15 58 17 49 3 57 6 57 23 0 18 -8 20 -83 23 l-83 3 3 -108z"/>
<path d="M1892 1298 c2 -18 11 -24 35 -26 l32 -3 3 -82 c3 -76 5 -82 26 -85
21 -3 22 -1 22 82 l0 85 33 3 c24 2 33 8 35 26 3 21 1 22 -93 22 -94 0 -96 -1
-93 -22z"/>
<path d="M1060 1036 c0 -8 -6 -17 -12 -20 -10 -5 -10 -7 0 -12 7 -3 12 -24 12
-50 0 -24 5 -44 10 -44 6 0 10 20 10 44 0 26 5 47 13 50 10 5 10 7 0 12 -7 3
-13 12 -13 20 0 8 -4 14 -10 14 -5 0 -10 -6 -10 -14z"/>
<path d="M371 1004 c-17 -12 -21 -24 -19 -52 3 -33 6 -37 33 -39 26 -2 27 -1
9 6 -40 17 -40 66 -1 80 11 4 16 11 10 14 -5 3 -20 -1 -32 -9z"/>
<path d="M547 1013 c-12 -11 -7 -21 9 -19 26 2 27 -18 2 -29 -30 -13 -34 -41
-8 -55 34 -18 50 -5 50 39 0 48 -31 86 -53 64z m33 -73 c0 -11 -7 -20 -15 -20
-27 0 -18 30 13 39 1 1 2 -8 2 -19z"/>
<path d="M715 1011 c-10 -9 -5 -101 5 -101 6 0 10 13 10 28 0 16 7 37 15 48 8
10 15 21 15 24 0 7 -39 8 -45 1z"/>
<path d="M876 1004 c-36 -36 -2 -113 43 -96 13 5 11 7 -8 12 -34 8 -39 30 -7
30 19 0 26 5 26 19 0 17 -24 51 -35 51 -2 0 -11 -7 -19 -16z m34 -25 c0 -5 -7
-9 -15 -9 -15 0 -20 12 -9 23 8 8 24 -1 24 -14z"/>
<path d="M1220 1010 c-12 -8 -11 -10 8 -10 13 0 22 -6 22 -15 0 -8 -7 -15 -15
-15 -8 0 -19 -9 -25 -19 -12 -23 10 -51 41 -51 16 0 19 7 19 48 0 26 -5 53
-12 60 -14 14 -19 15 -38 2z m27 -87 c-3 -3 -11 -2 -17 2 -8 5 -7 11 2 22 12
15 13 14 16 -1 2 -10 1 -20 -1 -23z"/>
<path d="M1390 960 c0 -33 4 -60 10 -60 6 0 10 7 10 17 0 14 2 14 20 -2 27
-24 26 -7 -1 21 -21 22 -21 25 -5 48 20 31 21 42 1 26 -10 -9 -15 -9 -15 -1 0
6 -4 11 -10 11 -6 0 -10 -27 -10 -60z"/>
<path d="M1578 1009 c-26 -15 -25 -85 1 -99 11 -5 28 -7 38 -3 16 6 15 8 -6
13 -34 8 -39 30 -7 30 31 0 34 19 9 49 -14 16 -22 18 -35 10z m30 -27 c2 -7
-3 -12 -12 -12 -9 0 -16 7 -16 16 0 17 22 14 28 -4z"/>
<path d="M1745 1012 c-10 -10 -5 -102 5 -102 6 0 10 14 10 30 0 17 9 39 20 50
11 11 19 20 18 21 -13 4 -49 5 -53 1z"/>
<path d="M1923 1013 c-18 -7 -16 -38 2 -53 20 -17 19 -37 -2 -44 -11 -3 -7 -4
7 -3 33 3 40 41 11 57 -24 13 -28 30 -6 30 8 0 15 5 15 10 0 11 -7 12 -27 3z"/>
<path d="M272 782 c4 -22 227 -71 358 -78 93 -5 120 -2 240 24 227 51 370 51
573 1 45 -11 125 -23 177 -26 80 -5 111 -2 200 20 58 14 128 28 155 32 45 7
64 18 65 37 0 10 -59 0 -185 -30 -148 -36 -266 -35 -425 2 -201 48 -378 46
-575 -7 -112 -29 -267 -29 -395 1 -164 38 -191 42 -188 24z"/>
<path d="M1000 664 c-14 -3 -74 -16 -135 -31 -98 -22 -124 -25 -235 -20 -75 4
-157 14 -205 26 -98 25 -102 26 -81 3 10 -12 56 -28 119 -43 144 -33 266 -31
417 6 101 25 134 29 270 29 137 1 171 -3 285 -28 166 -38 263 -40 403 -7 100
24 144 42 130 56 -4 4 -56 -5 -116 -19 -146 -35 -259 -35 -402 0 -86 21 -134
27 -265 29 -88 2 -171 1 -185 -1z"/>
<path d="M1030 540 c-36 -4 -115 -20 -177 -34 -145 -34 -273 -34 -388 0 -19 6
-19 5 1 -16 47 -48 228 -54 397 -13 100 25 131 27 292 28 162 0 192 -3 296
-27 173 -41 351 -35 395 13 20 22 17 23 -61 4 -106 -26 -183 -20 -410 29 -88
19 -259 27 -345 16z"/>
<path d="M1015 413 c-16 -2 -77 -15 -135 -28 -58 -13 -136 -27 -174 -31 -63
-6 -67 -8 -45 -20 35 -19 57 -17 208 17 117 28 156 32 281 33 128 0 163 -3
303 -33 138 -29 162 -32 185 -20 27 13 26 13 -28 22 -30 4 -107 20 -170 34
-112 25 -345 39 -425 26z"/>
<path d="M938 274 c-126 -25 -92 -49 37 -27 92 16 283 16 366 -1 44 -8 74 -9
90 -3 86 34 -342 61 -493 31z"/>
</g>
</svg>
